<mxfile host="app.diagrams.net" modified="2022-02-25T02:18:17.438Z" agent="5.0 (Windows NT 10.0; Win64; x64) AppleWebKit/537.36 (KHTML, like Gecko) Chrome/98.0.4758.102 Safari/537.36" etag="gA4n60BJeSONc8Ezkg44" version="16.6.3" type="github">
  <diagram id="nQHFIvQ6dZqCZj452bg0" name="第 1 页">
    <mxGraphModel dx="1267" dy="532" grid="1" gridSize="10" guides="1" tooltips="1" connect="1" arrows="1" fold="1" page="1" pageScale="1" pageWidth="827" pageHeight="1169" math="0" shadow="0">
      <root>
        <mxCell id="0" />
        <mxCell id="1" parent="0" />
        <mxCell id="ZaKkyevfAZTXTg-qhni0-29" value="" style="rounded=0;whiteSpace=wrap;html=1;dashed=1;" vertex="1" parent="1">
          <mxGeometry x="520" y="90" width="210" height="440" as="geometry" />
        </mxCell>
        <mxCell id="ZaKkyevfAZTXTg-qhni0-17" value="" style="rounded=0;whiteSpace=wrap;html=1;dashed=1;" vertex="1" parent="1">
          <mxGeometry x="220" y="90" width="210" height="440" as="geometry" />
        </mxCell>
        <mxCell id="ZaKkyevfAZTXTg-qhni0-14" style="edgeStyle=orthogonalEdgeStyle;rounded=0;orthogonalLoop=1;jettySize=auto;html=1;entryX=0;entryY=0.5;entryDx=0;entryDy=0;" edge="1" parent="1" source="ZaKkyevfAZTXTg-qhni0-7" target="ZaKkyevfAZTXTg-qhni0-13">
          <mxGeometry relative="1" as="geometry" />
        </mxCell>
        <mxCell id="ZaKkyevfAZTXTg-qhni0-7" value="&lt;h2&gt;source&lt;/h2&gt;" style="shape=note;whiteSpace=wrap;html=1;backgroundOutline=1;darkOpacity=0.05;" vertex="1" parent="1">
          <mxGeometry x="70" y="140" width="60" height="100" as="geometry" />
        </mxCell>
        <mxCell id="ZaKkyevfAZTXTg-qhni0-13" value="&lt;h2&gt;hound-autoetl&lt;/h2&gt;" style="rounded=1;whiteSpace=wrap;html=1;" vertex="1" parent="1">
          <mxGeometry x="250" y="165" width="150" height="50" as="geometry" />
        </mxCell>
        <mxCell id="ZaKkyevfAZTXTg-qhni0-15" value="&lt;h2&gt;hound-merge&lt;/h2&gt;" style="rounded=1;whiteSpace=wrap;html=1;" vertex="1" parent="1">
          <mxGeometry x="550" y="165" width="150" height="50" as="geometry" />
        </mxCell>
        <mxCell id="ZaKkyevfAZTXTg-qhni0-27" value="" style="endArrow=classic;html=1;rounded=0;entryX=0;entryY=0.5;entryDx=0;entryDy=0;" edge="1" parent="1" target="ZaKkyevfAZTXTg-qhni0-15">
          <mxGeometry relative="1" as="geometry">
            <mxPoint x="400" y="190" as="sourcePoint" />
            <mxPoint x="500" y="190" as="targetPoint" />
          </mxGeometry>
        </mxCell>
        <mxCell id="ZaKkyevfAZTXTg-qhni0-28" value="&lt;h2&gt;&lt;font face=&quot;Times New Roman&quot;&gt;消息通知&lt;/font&gt;&lt;/h2&gt;" style="edgeLabel;resizable=0;html=1;align=center;verticalAlign=middle;dashed=1;sketch=1;" connectable="0" vertex="1" parent="ZaKkyevfAZTXTg-qhni0-27">
          <mxGeometry relative="1" as="geometry" />
        </mxCell>
        <mxCell id="ZaKkyevfAZTXTg-qhni0-30" style="edgeStyle=orthogonalEdgeStyle;rounded=0;orthogonalLoop=1;jettySize=auto;html=1;entryX=0;entryY=0.5;entryDx=0;entryDy=0;strokeWidth=2;" edge="1" parent="1">
          <mxGeometry relative="1" as="geometry">
            <mxPoint x="130" y="189.5" as="sourcePoint" />
            <mxPoint x="250" y="189.5" as="targetPoint" />
          </mxGeometry>
        </mxCell>
        <mxCell id="ZaKkyevfAZTXTg-qhni0-31" value="" style="endArrow=classic;html=1;rounded=0;entryX=0;entryY=0.5;entryDx=0;entryDy=0;strokeWidth=2;" edge="1" parent="1">
          <mxGeometry relative="1" as="geometry">
            <mxPoint x="400" y="189.5" as="sourcePoint" />
            <mxPoint x="550" y="189.5" as="targetPoint" />
          </mxGeometry>
        </mxCell>
        <mxCell id="ZaKkyevfAZTXTg-qhni0-32" value="&lt;h2&gt;&lt;font face=&quot;Times New Roman&quot;&gt;消息通知&lt;/font&gt;&lt;/h2&gt;" style="edgeLabel;resizable=0;html=1;align=center;verticalAlign=middle;dashed=1;sketch=1;" connectable="0" vertex="1" parent="ZaKkyevfAZTXTg-qhni0-31">
          <mxGeometry relative="1" as="geometry" />
        </mxCell>
      </root>
    </mxGraphModel>
  </diagram>
</mxfile>
